<?xml version="1.0" standalone="no"?>
<!DOCTYPE svg PUBLIC "-//W3C//DTD SVG 20010904//EN"
 "http://www.w3.org/TR/2001/REC-SVG-20010904/DTD/svg10.dtd">
<svg version="1.0" xmlns="http://www.w3.org/2000/svg"
 width="1280.000000pt" height="652.000000pt" viewBox="0 0 1280.000000 652.000000"
 preserveAspectRatio="xMidYMid meet">
<metadata>
Created by potrace 1.16, written by Peter Selinger 2001-2019
</metadata>
<g transform="translate(0.000000,652.000000) scale(0.100000,-0.100000)"
fill="#000000" stroke="none">
<path d="M0 6215 l0 -305 6315 0 6315 0 0 295 0 295 85 0 c50 0 85 4 85 10 0
7 -2140 10 -6400 10 l-6400 0 0 -305z m11100 90 c66 -34 78 -130 24 -186 -35
-36 -52 -37 -56 -1 -2 19 4 33 21 48 20 17 22 26 17 60 l-7 39 -57 0 c-62 0
-70 -7 -71 -62 -1 -23 5 -36 19 -43 26 -14 26 -34 0 -27 -11 3 -18 1 -14 -4 3
-5 12 -9 20 -9 8 0 14 -7 14 -15 0 -33 -53 -8 -76 37 -11 21 -15 46 -11 77 10
85 97 128 177 86z m-10199 -44 c18 -14 24 -29 24 -61 0 -60 -39 -92 -104 -88
l-46 3 -3 83 -3 82 54 0 c39 0 62 -6 78 -19z m260 -33 l15 -53 19 53 c18 48
22 52 53 52 l33 0 -3 -82 c-3 -77 -5 -83 -25 -86 -21 -3 -23 1 -24 40 l-1 43
-15 -42 c-12 -34 -20 -43 -38 -43 -18 0 -25 7 -31 33 l-8 32 -5 -30 c-4 -21
-13 -31 -29 -33 -21 -3 -22 -1 -22 82 l0 86 33 0 c30 0 33 -3 48 -52z m10299
7 c0 -11 13 -15 48 -16 26 -1 62 -2 81 -3 37 -1 57 -26 22 -26 -12 0 -21 -4
-21 -10 0 -5 9 -10 20 -10 14 0 23 11 31 40 15 49 39 50 53 2 9 -33 32 -46 23
-13 -4 17 1 19 59 17 55 -1 64 2 64 17 0 9 5 17 10 17 6 0 10 -20 10 -45 0
-25 -4 -45 -10 -45 -5 0 -10 7 -10 15 0 9 -9 15 -25 15 -31 0 -32 -8 -2 -20
20 -9 19 -9 -8 -7 -23 1 -31 8 -33 25 -2 12 -8 20 -13 17 -5 -4 -5 -13 0 -24
8 -14 4 -17 -30 -18 -27 -1 -42 3 -46 13 -7 19 -33 18 -33 -1 0 -11 -11 -15
-40 -15 -22 0 -40 4 -40 9 0 5 -11 4 -25 -2 -14 -7 -25 -18 -25 -24 0 -19 -13
-16 -33 7 -9 11 -23 17 -32 14 -15 -6 -17 -2 -17 41 0 40 1 45 12 45 6 0 10
-7 10 -15z m-10046 -11 c21 -20 20 -73 -1 -96 -16 -18 -68 -24 -90 -10 -30 19
-36 77 -10 110 14 17 83 15 101 -4z"/>
<path d="M794 5195 c-12 -8 -19 -26 -20 -47 0 -18 -4 -45 -8 -60 -12 -42 0
-74 33 -88 35 -14 60 -8 95 25 34 31 34 80 2 128 l-24 35 36 5 c29 3 57 -5
127 -38 119 -56 242 -96 305 -98 l51 -2 -7 -55 c-4 -30 -10 -59 -14 -65 -9
-11 -18 -57 -24 -116 -1 -20 -6 -41 -10 -47 -3 -6 -9 -30 -12 -54 -8 -62 -34
-147 -46 -155 -8 -4 -5 -9 8 -14 17 -7 17 -8 -4 -8 -27 -1 -56 24 -46 40 4 8
9 7 15 -2 4 -7 11 -10 15 -6 12 12 -12 29 -47 33 -17 2 -37 8 -43 13 -6 5 -29
11 -51 13 l-40 3 0 73 c0 60 -3 75 -18 83 -21 12 -47 5 -47 -13 0 -9 3 -9 10
2 13 21 31 0 24 -28 -7 -26 -44 -31 -44 -5 0 13 -7 10 -30 -12 -44 -42 -40
-58 11 -50 39 7 40 6 37 -16 -2 -16 -9 -23 -20 -21 -10 2 -27 -2 -38 -8 -16
-9 -20 -8 -20 5 0 17 -25 21 -35 5 -9 -14 -24 -3 -35 25 -6 17 -15 22 -28 18
-22 -5 -63 32 -56 51 3 7 -4 21 -16 31 l-20 18 0 -148 c0 -123 2 -146 14 -136
7 6 32 10 55 8 37 -3 43 0 63 30 13 18 26 33 30 33 4 0 -11 -27 -33 -60 -42
-63 -58 -73 -66 -40 -3 11 -9 17 -14 14 -11 -6 -12 -44 -1 -44 18 -1 32 -18
26 -33 -4 -11 -18 -17 -40 -17 l-34 0 0 -325 0 -325 1295 0 1295 0 0 375 0
375 -25 6 c-28 7 -24 24 6 24 19 0 20 6 18 110 -1 60 -5 107 -10 104 -9 -5
-25 -9 -79 -20 -32 -7 -69 -31 -77 -50 -9 -23 5 -29 25 -11 10 10 26 17 36 17
16 0 16 -2 1 -22 -8 -13 -25 -23 -37 -23 -12 0 -23 -5 -25 -12 -3 -7 3 -9 18
-6 18 5 20 3 14 -16 -5 -15 -2 -21 9 -21 9 0 15 6 14 12 -3 15 24 18 29 3 3
-10 -65 -45 -87 -45 -5 0 -30 11 -56 25 -49 26 -79 31 -89 15 -3 -5 -13 -6
-22 -3 -20 8 -13 -18 8 -27 8 -4 28 -15 44 -24 17 -9 41 -21 55 -27 30 -11 56
-58 65 -115 6 -40 -2 -52 -35 -56 -3 0 -16 -9 -29 -19 -33 -27 -44 -24 -38 9
6 28 5 28 -37 27 -24 -1 -48 -5 -54 -9 -6 -3 -13 -2 -17 4 -13 21 -25 -2 -20
-41 7 -51 -5 -44 -40 26 -16 30 -30 53 -33 51 -9 -10 33 -112 57 -138 26 -29
25 -43 -2 -33 -8 4 -25 30 -36 58 -12 29 -26 60 -31 69 -6 10 -10 26 -10 35 0
10 -4 24 -9 31 -4 7 -6 -13 -4 -45 4 -55 3 -57 -11 -33 l-15 25 -1 -27 c0 -14
-3 -33 -6 -42 -11 -28 -24 -6 -24 38 0 24 -6 49 -13 55 -16 13 -27 5 -27 -19
0 -9 -7 -25 -16 -36 -15 -18 -15 -18 -5 3 6 12 11 36 11 53 0 26 -3 31 -21 28
-31 -4 -47 -33 -32 -56 9 -15 7 -21 -8 -30 -12 -8 -20 -8 -24 -1 -5 6 -11 4
-18 -5 -11 -14 -15 -14 -45 4 l-33 21 18 32 c15 25 28 33 56 37 28 4 41 12 52
34 8 15 15 30 15 32 0 2 -21 13 -47 25 -41 18 -65 21 -160 20 -102 -1 -113 0
-113 16 0 40 43 64 60 34 5 -10 24 -21 42 -24 26 -3 38 1 56 20 25 27 28 39
10 45 -7 3 -5 13 7 31 12 20 15 37 11 63 -6 31 -14 39 -64 62 -155 73 -432 -7
-432 -125 0 -38 43 -57 144 -63 98 -5 105 -11 92 -65 -5 -19 -17 -26 -64 -36
-66 -14 -84 -25 -56 -36 10 -4 24 -14 31 -22 11 -14 12 -13 13 5 0 19 35 44
60 44 15 0 11 -62 -5 -90 -8 -14 -18 -33 -21 -42 -7 -20 -20 -24 -26 -7 -2 7
-28 3 -73 -12 -39 -13 -74 -23 -80 -24 -5 0 -10 -7 -10 -15 0 -22 -18 -39 -31
-29 -6 5 -15 4 -20 -1 -7 -7 -16 -4 -28 9 -17 19 -17 20 11 34 26 14 63 50 63
62 0 3 -7 5 -15 5 -8 0 -12 6 -10 13 3 6 -10 19 -28 28 -22 11 -33 24 -35 42
-3 25 -1 27 38 27 49 0 58 15 41 71 -13 44 -37 48 -34 5 2 -29 -4 -32 -30 -12
-13 10 -15 21 -11 45 4 20 3 31 -5 31 -16 0 -13 26 5 45 23 22 1 45 -42 45
-39 0 -45 -21 -17 -53 17 -18 17 -19 0 -32 -17 -12 -25 -31 -8 -21 14 9 23
-25 10 -40 -17 -20 -42 3 -36 33 2 13 0 26 -4 29 -5 3 -9 -7 -9 -23 0 -33 -8
-47 -33 -56 -9 -4 -21 -17 -26 -30 -5 -13 -31 -42 -57 -64 -63 -55 -50 -73 21
-28 30 19 57 35 60 35 3 0 5 -13 5 -28 0 -27 -36 -87 -62 -103 -7 -5 -9 -12
-4 -16 4 -4 15 1 24 13 16 19 17 18 17 -37 0 -37 -4 -55 -10 -50 -11 8 -60 7
-100 -3 -21 -5 -25 -3 -25 14 0 14 -11 26 -34 35 -24 10 -35 22 -39 45 -5 24
-13 32 -37 36 -16 4 -30 10 -30 13 0 15 26 31 51 31 23 0 59 25 48 34 -15 11
-89 44 -89 40 0 -4 -7 -1 -15 6 -8 6 -19 9 -25 5 -15 -9 12 48 29 61 17 13 8
20 -42 29 l-39 8 5 -32 c4 -22 1 -31 -8 -31 -21 0 -23 10 -14 80 5 36 11 94
15 130 7 74 31 179 46 197 6 8 6 18 0 29 -6 10 -5 34 1 63 11 56 27 77 27 36
l0 -28 123 6 c170 9 329 59 416 132 41 36 40 47 -6 39 -25 -4 -49 -18 -70 -40
-18 -19 -36 -34 -42 -34 -5 0 -17 -7 -25 -15 -9 -9 -29 -18 -45 -20 -17 -2
-34 -6 -39 -8 -16 -10 -102 -16 -102 -8 0 5 -3 18 -7 28 -6 17 -5 16 16 -2
l22 -19 -6 29 -7 30 21 -25 c20 -24 21 -24 21 -3 0 21 13 25 39 9 11 -7 13 -4
7 18 -7 28 2 34 23 14 10 -11 11 -9 5 7 l-7 20 23 -20 23 -20 -7 23 c-8 25 -7
26 28 12 27 -10 34 -2 15 17 -8 8 -20 8 -35 3 -13 -5 -26 -5 -29 -1 -3 5 -247
9 -543 10 -445 0 -542 -2 -558 -14z m262 -680 c14 -31 32 -59 38 -63 6 -4 11
-13 12 -19 1 -7 2 -28 3 -45 l2 -33 21 48 c22 49 48 63 48 25 0 -13 -7 -32
-15 -42 -33 -43 -10 -72 31 -41 10 8 30 14 44 14 23 -1 23 -2 -7 -15 -18 -8
-33 -20 -33 -28 0 -9 -7 -12 -20 -9 -11 3 -20 0 -20 -6 0 -7 -12 -11 -27 -9
-23 3 -28 -1 -26 -19 3 -23 -26 -41 -37 -23 -4 7 -1 30 7 52 7 22 11 50 7 62
-4 11 -6 36 -5 54 1 17 -3 32 -8 32 -9 0 -61 92 -61 110 0 26 21 5 46 -45z"/>
<path d="M3035 5201 l-30 -7 38 -19 c44 -22 45 -28 12 -43 -29 -13 -31 -24
-10 -56 15 -22 14 -24 -5 -29 -30 -8 -27 -61 5 -93 l25 -25 -23 -8 c-16 -6
-23 -5 -26 7 -5 23 -43 51 -68 52 -33 0 -54 -27 -50 -65 5 -44 20 -61 63 -69
19 -4 32 -11 29 -15 -6 -11 -69 -3 -73 9 -4 12 -22 14 -22 2 0 -4 15 -16 33
-27 17 -10 34 -21 37 -24 3 -3 19 -14 36 -23 45 -25 140 -7 186 35 24 22 43
31 71 31 23 1 37 -4 37 -11 0 -7 11 -13 25 -13 24 0 25 2 25 66 0 41 -4 63
-10 59 -18 -11 -30 5 -18 25 9 14 9 25 0 45 -11 24 -10 27 8 32 17 5 20 14 20
63 0 42 -5 64 -19 81 -18 23 -26 24 -143 26 -67 1 -136 -2 -153 -6z"/>
<path d="M3624 5186 l-29 -24 2 -704 1 -703 384 -2 c345 -1 376 0 316 12 -84
17 -93 22 -76 43 12 14 8 15 -29 9 -23 -4 -47 -8 -55 -10 -7 -2 -10 -2 -5 0
12 7 8 33 -5 34 -7 1 -29 0 -48 0 -33 -1 -34 -1 -16 14 11 8 27 15 35 16 9 1
-4 5 -28 10 -24 5 -52 16 -62 25 -11 10 -22 15 -25 11 -13 -13 -44 31 -42 59
3 40 -7 52 -48 60 -20 4 -38 12 -41 20 -2 7 -12 10 -21 7 -13 -4 -14 -3 -6 6
12 13 7 58 -7 67 -5 3 -9 21 -9 40 0 25 -8 42 -27 60 -22 21 -25 27 -13 34 13
8 13 14 -2 42 -10 18 -17 47 -16 65 1 28 5 32 32 35 l31 3 -38 23 c-40 23 -45
49 -8 45 30 -4 27 3 -16 32 -21 14 -31 25 -24 25 11 0 9 5 -4 20 -14 15 -18
34 -17 68 3 49 28 206 39 232 3 8 7 41 9 74 1 32 6 72 9 88 6 28 8 28 25 13
14 -13 16 -23 9 -53 -13 -58 -11 -112 4 -112 10 0 18 26 26 83 l11 82 -30 25
c-42 35 -40 54 6 45 24 -4 34 -3 29 4 -3 6 1 11 10 11 13 0 16 6 11 26 -5 18
-3 24 5 18 8 -5 9 -3 3 7 -5 8 -9 19 -9 24 0 6 -10 11 -22 13 -17 3 -22 -3
-25 -23 -4 -32 -21 -34 -28 -3 -5 21 -12 23 -72 26 -58 3 -69 0 -94 -22z"/>
<path d="M5493 5202 c-16 -10 -53 -128 -53 -169 0 -38 14 -42 39 -11 19 23 44
17 34 -9 -4 -11 -3 -14 5 -9 7 4 19 0 28 -8 17 -18 34 -13 34 10 0 8 4 13 9
10 6 -4 5 -21 -1 -42 -11 -43 6 -72 25 -42 10 15 13 14 24 -10 7 -15 12 -20
12 -12 -3 48 0 53 21 29 l19 -24 2 30 c1 17 3 23 6 13 3 -11 14 -18 28 -18 32
0 67 -50 64 -92 -6 -77 1 -107 30 -138 20 -23 34 -30 48 -26 13 4 26 -1 38
-14 16 -18 20 -19 40 -6 19 13 24 13 38 -1 14 -14 16 -13 22 21 9 47 19 46 34
-4 6 -22 16 -40 21 -40 8 0 16 99 11 132 -1 7 86 23 107 20 9 -2 12 39 12 181
l0 184 -26 24 -26 24 -316 2 c-174 1 -322 -1 -329 -5z"/>
<path d="M6475 5198 c-45 -26 -44 -14 -45 -628 0 -332 4 -599 9 -618 6 -20 6
-32 0 -32 -5 0 -9 -38 -9 -85 l0 -85 1298 0 1297 0 3 701 2 700 -29 30 -29 29
-636 0 -636 0 0 -70 c0 -62 2 -71 18 -68 9 2 23 11 30 21 7 9 19 17 27 17 19
0 30 -57 15 -75 -19 -23 -57 -19 -63 6 -3 12 -12 19 -19 17 -10 -4 -12 -29 -9
-105 3 -105 -4 -167 -20 -157 -5 3 -9 14 -9 24 0 11 -18 34 -40 51 -39 31 -40
34 -40 93 0 44 -3 57 -10 46 -6 -8 -7 -27 -4 -43 7 -35 -5 -109 -17 -101 -5 3
-7 9 -4 14 6 9 -46 50 -63 50 -11 0 -28 -38 -24 -54 2 -4 -2 -14 -8 -21 -7 -8
-7 -15 -1 -19 10 -7 9 -52 -3 -63 -19 -19 -36 -10 -37 20 0 27 -2 29 -9 12
-11 -30 -18 -295 -8 -301 5 -3 2 -14 -7 -24 -9 -10 -21 -35 -25 -56 -7 -31 -4
-48 19 -98 25 -56 27 -70 26 -179 -1 -80 2 -116 9 -114 6 2 10 20 8 40 -3 43
9 53 33 27 13 -14 16 -29 11 -57 -3 -21 -6 -46 -7 -55 0 -25 -29 -23 -29 2 0
11 -3 20 -7 20 -5 0 -6 -34 -5 -77 2 -46 7 -71 12 -63 7 11 11 11 24 1 12 -10
19 -10 38 1 21 12 24 20 23 78 0 60 2 65 23 68 12 2 22 10 22 18 0 19 16 18
24 -2 3 -9 15 -14 28 -12 21 3 23 7 19 53 -1 28 -7 52 -13 54 -5 2 3 16 18 32
l27 28 1 211 c0 115 4 210 7 210 8 0 12 -66 10 -152 -2 -61 1 -67 25 -43 11
10 13 25 9 45 -6 29 -6 30 33 30 l39 0 0 -42 c1 -24 -3 -47 -7 -53 -4 -5 -13
-33 -19 -62 -9 -35 -18 -53 -31 -56 -23 -6 -30 0 -30 25 0 11 7 18 20 18 20 0
20 1 -2 35 -13 19 -27 35 -31 35 -10 0 -5 -245 5 -255 3 -4 16 -2 27 5 31 16
38 -11 14 -52 -20 -35 -51 -53 -39 -23 5 15 4 16 -9 5 -19 -16 -20 -59 -1 -66
12 -4 14 -21 10 -77 -3 -63 -3 -68 7 -37 18 57 59 93 59 51 0 -25 39 -39 54
-19 6 7 22 14 36 13 32 0 62 13 55 25 -3 5 -1 11 4 14 5 4 12 2 15 -3 4 -5 2
-12 -4 -16 -6 -4 -8 -11 -5 -16 11 -17 23 -9 29 21 3 17 12 30 20 30 8 0 25
14 37 32 13 17 25 26 27 20 6 -18 32 -14 32 4 0 9 -9 27 -20 41 l-20 25 -11
-28 c-10 -23 -13 -25 -16 -11 -3 12 -10 16 -24 12 -11 -4 -19 -2 -19 4 0 6 7
11 15 11 8 0 15 6 15 14 0 21 19 30 35 16 12 -10 15 -6 20 17 4 15 9 39 12 53
3 14 7 44 9 68 3 23 18 70 34 103 34 71 63 166 55 179 -10 16 15 90 34 102 11
6 17 18 14 25 -3 7 0 13 6 13 6 0 8 7 5 15 -4 9 0 15 10 15 9 0 16 -7 16 -15
0 -8 9 -15 20 -15 11 0 21 -7 21 -15 2 -24 4 -29 12 -42 5 -8 4 -13 -2 -13 -6
0 -11 -4 -11 -10 0 -5 9 -10 20 -10 11 0 20 -5 20 -11 0 -6 7 -8 16 -5 12 4
15 2 10 -9 -8 -23 4 -45 25 -45 10 0 18 -5 17 -11 -2 -6 6 -16 17 -22 11 -7
23 -16 27 -22 5 -6 8 -4 9 5 0 10 3 8 9 -5 8 -19 9 -18 9 4 1 30 16 18 16 -12
0 -15 5 -21 16 -19 13 2 16 -6 16 -35 -1 -35 1 -38 24 -35 13 2 30 9 37 14 9
8 12 6 12 -6 0 -10 4 -15 9 -12 5 3 14 -8 20 -26 13 -38 14 -41 1 -33 -5 3
-10 -1 -10 -9 0 -9 4 -16 10 -16 5 0 12 -11 16 -25 3 -14 10 -23 15 -20 4 3
19 -10 32 -29 16 -25 27 -32 34 -25 7 7 17 3 31 -15 11 -14 24 -26 29 -26 4 0
14 -9 21 -20 7 -11 20 -20 29 -20 13 0 14 3 5 12 -25 25 -11 29 17 5 24 -19
39 -24 74 -22 56 4 75 -6 52 -29 -9 -9 -25 -16 -35 -16 -23 0 -35 -16 -18 -23
10 -3 8 -8 -4 -18 -22 -19 -36 -89 -17 -89 11 -1 10 -3 -2 -10 -8 -5 -44 -10
-80 -11 -75 -3 -127 -15 -151 -36 -16 -14 -18 -14 -24 1 -8 20 -28 21 -44 1
-18 -21 -48 -19 -75 7 -12 12 -32 23 -45 25 -18 3 -21 -1 -17 -17 3 -13 0 -20
-10 -20 -10 0 -13 6 -9 16 4 11 1 14 -12 12 -9 -2 -16 -12 -16 -22 2 -16 1
-16 -20 1 -11 10 -18 14 -14 9 15 -18 -13 -35 -46 -29 -20 3 -36 1 -40 -6 -11
-16 -46 -13 -46 4 0 8 5 15 10 15 6 0 10 5 10 11 0 8 -4 9 -13 0 -8 -6 -17 -8
-21 -4 -4 4 -9 -3 -13 -15 -5 -20 -10 -21 -72 -18 -36 2 -77 -2 -90 -8 -19 -8
-25 -8 -29 2 -5 17 -42 15 -63 -4 -9 -8 -41 -19 -71 -23 -29 -4 -68 -15 -87
-24 -36 -18 -151 -24 -151 -8 0 17 -98 34 -148 25 -61 -11 -90 -7 -130 17 -18
10 -47 19 -63 19 -20 0 -37 8 -49 22 l-17 22 -8 -23 c-5 -18 -11 -21 -28 -16
-12 4 -35 9 -52 10 -16 2 -36 3 -42 4 -7 0 -13 9 -13 19 -1 16 -1 16 -14 0
-17 -23 -24 -23 -22 -1 1 22 -75 45 -82 25 -2 -7 -10 -12 -17 -12 -7 0 -15 -7
-19 -15 -6 -16 -56 -21 -56 -6 0 15 -32 22 -47 9 -11 -9 -21 -8 -46 7 -21 13
-57 20 -112 22 -102 5 -111 8 -95 29 10 11 10 18 2 26 -7 7 -12 20 -12 30 0
10 -7 21 -15 24 -22 9 -19 35 3 27 14 -5 13 -3 -3 10 -19 14 -20 14 -26 -6 -4
-19 -6 -17 -12 12 -10 49 -10 50 21 50 91 -2 135 4 153 22 10 10 19 23 19 28
0 5 7 12 16 15 8 3 12 10 9 16 -3 6 4 10 17 11 13 0 17 3 11 6 -15 6 -17 33
-3 33 6 0 10 7 10 15 0 8 5 15 11 15 7 0 8 -12 4 -32 -4 -22 -3 -28 3 -19 5 7
14 11 19 8 5 -3 20 13 32 37 18 32 21 47 14 62 -12 23 -6 44 13 44 8 0 14 5
14 10 0 6 9 10 19 10 11 0 23 -4 26 -10 3 -5 13 -10 21 -10 11 0 13 6 9 20 -8
26 11 61 30 54 18 -7 20 7 3 24 -9 9 -9 15 0 24 9 9 14 6 21 -13 7 -18 10 -20
10 -6 1 10 5 15 11 12 5 -3 24 10 41 29 17 20 36 33 42 29 6 -4 8 2 4 16 -4
16 6 33 38 68 24 26 42 50 39 54 -2 5 5 13 17 19 13 8 19 18 16 30 -3 10 4 49
15 87 10 37 21 100 23 140 4 84 8 93 40 93 13 0 36 5 52 11 15 6 55 11 88 10
86 0 115 7 115 29 0 29 17 33 24 5 5 -20 13 -25 36 -25 25 0 30 5 39 38 6 20
11 48 11 62 l0 25 -593 2 c-429 2 -597 -1 -612 -9z m1391 -403 c4 -9 -4 -25
-20 -40 -14 -13 -26 -27 -26 -32 0 -4 5 -2 12 5 7 7 28 11 48 11 19 -1 27 -3
18 -6 -22 -6 -23 -19 -2 -27 10 -4 13 -2 8 6 -4 7 -3 8 4 4 7 -4 10 -20 7 -36
-3 -16 0 -32 6 -36 8 -4 7 -9 -2 -15 -11 -7 -9 -9 6 -9 17 0 17 -2 5 -10 -10
-6 -11 -10 -3 -10 9 0 10 -7 3 -26 -11 -29 -6 -44 16 -44 18 0 18 -11 0 -35
-10 -14 -11 -25 -2 -46 8 -21 7 -32 -2 -41 -9 -9 -12 -6 -12 15 0 17 -5 27
-15 27 -16 0 -32 53 -34 119 -1 24 -6 52 -11 61 -12 22 -64 24 -56 3 3 -8 -2
-26 -11 -41 -64 -103 -112 -93 -72 14 14 36 18 59 11 67 -5 7 -12 25 -15 41
-6 35 23 63 82 83 48 15 51 15 57 -2z"/>
<path d="M9313 5200 c-34 -14 -43 -42 -43 -139 0 -80 2 -91 21 -105 24 -17 22
-52 -4 -50 -18 2 -24 -30 -7 -41 5 -3 7 0 5 8 -4 9 6 16 32 23 33 8 38 13 35
35 -2 19 5 29 23 39 14 7 26 23 26 34 1 15 4 12 9 -9 11 -45 11 -87 0 -80 -5
3 -17 2 -26 -3 -14 -8 -14 -11 7 -26 13 -9 20 -16 15 -16 -5 0 -3 -7 4 -15 8
-10 9 -19 4 -25 -9 -8 -53 -15 -64 -10 -3 1 -14 4 -25 5 -11 2 -28 6 -37 10
-17 7 -18 -23 -18 -539 l0 -546 225 0 c172 0 226 3 229 13 2 6 9 35 15 62 21
91 62 184 91 208 36 31 90 27 91 -7 l0 -21 16 23 c18 26 38 28 51 6 7 -12 14
-14 28 -6 69 36 76 37 88 20 8 -10 17 -14 22 -9 5 6 31 1 62 -11 45 -17 56
-26 76 -66 21 -42 43 -109 60 -184 l6 -28 765 0 765 0 0 701 c0 438 -4 707
-10 719 -18 33 -66 40 -291 40 -121 0 -219 -3 -219 -6 0 -3 5 -25 11 -49 13
-52 12 -52 224 -58 83 -2 158 -7 167 -11 24 -11 44 -74 28 -89 -9 -9 -14 -8
-24 6 -8 10 -20 15 -30 11 -19 -7 -16 -28 5 -30 8 -1 20 -2 27 -3 6 0 12 -7
12 -15 0 -21 -22 -26 -41 -9 -14 12 -19 12 -35 -4 -12 -13 -19 -14 -22 -5 -8
24 -22 12 -22 -19 l0 -32 -23 24 c-13 13 -26 32 -30 42 -11 29 -27 19 -27 -17
0 -47 -9 -66 -31 -66 -12 0 -16 5 -13 14 3 8 1 17 -5 21 -6 3 -11 15 -11 25 0
10 -5 22 -12 26 -8 5 -10 -6 -5 -43 5 -42 3 -52 -15 -67 -20 -18 -21 -17 -15
5 6 24 -15 64 -26 52 -12 -12 -7 -30 19 -68 20 -31 24 -45 19 -73 -4 -24 -9
-31 -15 -23 -4 8 -13 10 -19 7 -6 -4 -11 0 -11 9 0 9 -12 27 -27 41 -19 17
-24 27 -15 31 14 6 16 59 2 68 -5 3 -10 1 -10 -4 0 -6 -7 -11 -15 -11 -8 0
-15 5 -15 10 0 6 -9 10 -20 10 -11 0 -20 -7 -20 -15 0 -8 -4 -15 -9 -15 -13 0
-34 57 -26 70 4 6 -1 22 -9 35 -10 14 -14 36 -11 50 3 14 7 36 10 50 5 21 11
25 41 25 33 0 36 2 30 25 -14 56 -26 76 -44 73 -9 -2 -15 -11 -13 -19 2 -8 6
-22 8 -32 4 -12 1 -16 -9 -12 -10 4 -17 -1 -21 -15 -8 -33 -28 -20 -46 30
l-17 45 -337 3 c-291 2 -340 0 -353 -13 -19 -19 -33 -19 -40 0 -7 17 -74 21
-74 5 0 -5 5 -10 10 -10 6 0 10 -9 10 -20 0 -10 7 -23 16 -28 12 -6 15 -18 12
-36 -5 -23 -3 -26 16 -20 11 4 30 7 41 6 11 -1 30 10 42 25 24 30 53 26 53 -8
0 -20 2 -21 143 -15 78 4 202 8 276 11 139 6 156 9 147 30 -5 13 12 35 26 35
4 0 8 -6 8 -14 0 -7 11 -30 26 -51 20 -30 24 -44 18 -69 -4 -17 -7 -35 -6 -40
2 -4 -17 3 -40 16 -24 14 -60 31 -80 37 -34 11 -41 10 -68 -9 -18 -13 -33 -35
-37 -51 -3 -16 -12 -34 -21 -41 -13 -11 -14 -10 -7 11 5 17 4 22 -5 19 -7 -2
-18 -25 -25 -50 -18 -74 -101 -142 -144 -119 -24 14 -83 -22 -74 -45 4 -10 14
-14 29 -11 13 2 24 0 24 -6 0 -5 9 -7 21 -4 13 4 22 0 26 -11 4 -8 15 -24 25
-34 25 -25 24 -74 -1 -81 -11 -2 -29 -23 -41 -46 -26 -52 -42 -59 -76 -32 -17
14 -34 19 -47 15 -11 -3 -23 -1 -27 7 -6 9 -12 9 -25 -4 -9 -10 -25 -17 -35
-17 -10 0 -25 -11 -33 -24 -14 -20 -14 -26 -3 -36 11 -8 23 -6 52 9 21 11 40
18 43 16 10 -10 -33 -45 -56 -45 -38 0 -63 -18 -63 -45 0 -13 -4 -27 -10 -30
-13 -8 -13 26 0 59 14 37 -7 44 -128 38 -100 -4 -103 -5 -97 -26 3 -11 10 -50
15 -86 11 -82 18 -100 38 -100 12 0 13 -3 4 -12 -8 -8 -9 -40 -5 -104 7 -111
6 -112 -97 -95 -64 10 -170 59 -178 82 -5 14 -52 11 -49 -3 1 -7 -8 -14 -20
-16 -25 -4 -56 35 -51 64 2 9 -3 19 -9 21 -7 3 -13 -2 -13 -11 0 -9 -7 -16
-15 -16 -8 0 -14 -3 -13 -7 5 -25 -17 -43 -52 -43 -34 0 -39 -3 -42 -26 -2
-15 -10 -30 -18 -34 -8 -4 -29 -14 -47 -22 -38 -19 -53 -8 -53 37 0 23 7 35
28 48 15 9 43 30 62 47 33 29 34 31 21 67 -32 95 -62 129 -81 92 -11 -20 -5
-59 9 -59 8 0 -10 -85 -20 -95 -4 -3 -9 40 -12 96 -3 56 -10 106 -16 112 -20
20 -12 39 36 83 46 42 47 44 28 58 -11 9 -34 18 -52 22 -20 4 -33 13 -37 27
-7 27 3 37 40 41 16 2 30 4 32 5 2 0 -3 13 -11 29 -9 15 -23 50 -32 77 -10 28
-24 57 -31 66 -8 8 -14 22 -14 30 0 8 -19 58 -42 112 -28 66 -46 97 -57 97 -9
0 -33 8 -53 19 -30 15 -38 16 -42 5 -11 -28 -24 -12 -57 66 -33 81 -38 85 -76
70z m1773 -341 c3 -6 17 -8 30 -5 15 4 24 2 24 -6 0 -6 7 -3 15 8 13 18 14 18
8 -4 -3 -12 -14 -27 -24 -33 -12 -6 -19 -21 -19 -39 0 -23 -5 -31 -25 -36 -14
-3 -25 -12 -25 -19 0 -7 -7 -18 -15 -25 -14 -11 -14 -15 2 -32 17 -19 17 -19
25 1 5 15 16 21 36 21 33 0 59 24 64 59 1 14 8 26 15 28 24 8 26 -54 9 -207
-10 -85 -22 -202 -28 -260 -10 -111 -20 -130 -65 -130 -13 0 -23 4 -23 9 0 5
-11 11 -25 13 -26 3 -31 23 -7 23 29 0 34 34 11 71 -20 34 -21 43 -15 157 7
120 6 122 -16 132 -23 10 -26 24 -13 77 7 25 5 26 -24 22 -42 -7 -40 1 14 58
l20 20 -38 -6 -38 -7 17 26 c16 24 16 27 -2 41 -18 14 -18 14 4 4 21 -10 24
-8 35 19 9 24 17 31 39 31 15 0 30 -5 34 -11z m-316 -373 c0 -7 8 -16 19 -19
16 -4 18 -10 11 -43 -5 -22 -15 -57 -24 -79 -8 -22 -15 -72 -16 -112 0 -71 -1
-73 -25 -73 -14 0 -28 6 -31 14 -7 19 22 263 35 299 11 28 31 37 31 13z m431
-393 l40 -72 -44 -25 c-24 -14 -46 -26 -49 -26 -16 0 -62 183 -49 195 3 3 18
5 34 3 24 -3 35 -15 68 -75z"/>
<path d="M9543 5199 c-11 -11 15 -100 62 -211 15 -38 15 -38 35 -18 24 24 58
26 67 4 8 -21 -15 -35 -44 -27 -32 7 -30 -23 6 -126 42 -115 45 -118 81 -79
16 17 23 19 32 10 10 -10 8 -14 -10 -18 -25 -7 -31 -44 -6 -44 8 0 13 -4 9
-10 -3 -5 -12 -7 -20 -3 -8 3 -15 0 -15 -6 0 -6 9 -11 19 -11 11 0 32 -11 47
-24 27 -23 28 -24 11 -49 -18 -27 -23 -57 -9 -57 22 1 39 31 45 78 7 57 32 97
43 68 3 -9 10 -16 15 -16 14 0 11 44 -6 83 -9 23 -11 38 -5 42 9 6 13 0 12
-16 -2 -13 48 4 64 22 17 19 71 28 60 10 -6 -10 33 -23 46 -15 4 3 8 12 8 21
0 9 7 24 16 34 11 12 14 27 10 43 -5 19 -18 28 -68 44 -35 10 -77 17 -94 15
-29 -5 -33 -2 -39 27 -4 18 -3 36 3 42 16 16 49 -1 56 -29 7 -24 10 -25 48
-19 32 5 43 3 53 -11 8 -10 17 -15 21 -10 4 4 -2 16 -14 27 -40 38 -17 75 33
52 20 -9 24 -8 28 10 9 32 40 18 48 -22 4 -19 4 -39 -1 -44 -5 -5 -6 -21 -3
-36 6 -34 -13 -49 -31 -24 -16 22 -26 6 -15 -24 7 -18 13 -21 25 -14 24 13 54
3 54 -19 0 -21 -21 -25 -51 -8 -17 9 -21 7 -26 -10 -3 -12 -9 -21 -14 -21 -4
0 -5 -10 -2 -22 17 -73 17 -73 -24 -85 -21 -7 -29 -11 -18 -10 31 4 44 -14 32
-41 -9 -20 -16 -23 -43 -17 -20 3 -35 1 -40 -6 -5 -9 -2 -10 9 -6 11 4 17 1
17 -9 0 -16 113 -74 145 -74 11 0 29 -6 40 -14 11 -7 60 -16 109 -20 l88 -7
-6 35 c-6 29 -4 36 9 36 9 0 22 14 28 30 6 17 19 30 27 30 9 0 26 9 39 21 22
20 22 22 4 41 -18 20 -17 21 6 13 15 -4 26 -3 31 5 4 7 13 9 19 6 14 -9 15
-36 1 -36 -5 0 -10 -12 -10 -26 0 -23 3 -25 23 -19 56 17 94 25 124 25 54 0
56 37 3 57 -17 6 -30 18 -30 27 0 15 -12 21 -34 17 -20 -4 -46 12 -46 27 0 13
-10 18 -37 19 -21 1 -43 -3 -50 -8 -7 -6 -17 -8 -23 -4 -5 3 -10 -1 -10 -10 0
-12 -6 -14 -27 -9 -16 4 -32 13 -36 21 -6 10 -13 11 -29 2 -17 -9 -24 -6 -49
23 -19 23 -28 28 -29 17 0 -28 -24 -41 -46 -24 -18 14 -18 15 6 35 14 10 32
18 40 17 9 -1 14 5 13 18 -1 11 3 23 9 26 6 4 8 13 6 20 -4 9 -12 3 -24 -18
-22 -39 -72 -47 -81 -14 -3 11 -13 21 -24 24 -26 7 -24 26 3 36 l22 8 -22 12
c-30 16 -29 51 1 51 12 1 40 9 62 20 22 11 50 19 63 20 23 0 30 14 11 26 -6 3
-9 15 -6 25 3 13 -2 23 -15 30 -12 7 -18 18 -15 29 7 25 -68 38 -93 15 -21
-19 -34 -19 -50 0 -19 23 -165 21 -178 -2 -9 -15 -16 -15 -67 -4 -47 11 -59
11 -66 0 -5 -8 -1 -18 12 -27 10 -7 19 -19 19 -26 0 -8 9 -16 20 -19 11 -3 20
-10 20 -16 0 -16 -33 -27 -38 -13 -5 17 -37 15 -53 -4 -8 -10 -21 -13 -36 -9
-16 4 -23 1 -23 -9 0 -15 -27 -29 -40 -21 -5 3 -11 1 -15 -5 -11 -18 -35 -11
-35 10 0 11 7 20 15 20 8 0 14 3 13 8 -5 16 55 67 75 65 13 -2 16 0 8 4 -8 3
-27 19 -42 34 -28 28 -31 29 -132 29 -63 0 -107 -4 -114 -11z"/>
<path d="M1005 5071 c15 -18 16 -24 6 -30 -11 -7 -9 -13 7 -27 28 -26 43 -36
77 -54 15 -8 37 -27 48 -42 21 -28 21 -28 1 -44 -19 -15 -18 -15 3 -11 27 6
39 -22 24 -52 -6 -11 -11 -27 -11 -37 0 -9 -11 -31 -24 -48 l-24 -32 22 1 c12
1 28 5 35 9 8 5 18 0 27 -13 9 -12 26 -21 41 -21 19 0 24 -4 19 -16 -3 -9 1
-25 10 -37 15 -21 15 -19 9 33 -4 30 -13 60 -22 67 -11 9 -12 19 -5 45 5 18 7
62 6 96 -3 56 -7 67 -31 85 -16 12 -41 35 -57 52 -16 16 -34 30 -41 30 -7 0
-24 9 -37 21 -14 11 -33 23 -44 26 -10 3 -28 9 -39 14 -20 7 -20 7 0 -15z"/>
<path d="M2375 5060 c-10 -11 -24 -20 -32 -20 -16 0 -16 -5 -2 -33 16 -29 28
-37 62 -37 23 0 27 -4 27 -30 0 -22 -5 -30 -17 -31 -11 0 -13 -3 -5 -6 6 -2
12 -18 12 -34 0 -46 25 -35 50 24 13 28 24 58 26 65 5 24 10 23 72 -5 40 -17
57 -30 49 -35 -9 -5 -7 -8 4 -8 32 0 30 31 -4 62 -17 16 -47 43 -64 60 -27 25
-35 29 -48 18 -12 -10 -15 -10 -15 0 0 10 -3 10 -15 0 -12 -10 -15 -10 -15 4
0 19 -21 21 -39 4 -11 -11 -13 -10 -8 5 9 24 -15 22 -38 -3z"/>
<path d="M4265 5053 c-127 -4 -135 -7 -135 -45 l0 -31 93 7 c132 9 257 28 257
38 0 5 5 6 10 3 6 -3 10 3 10 14 0 23 14 22 -235 14z"/>
<path d="M4768 5007 c-9 -7 -20 -25 -23 -39 -7 -29 10 -72 26 -63 5 4 9 2 9
-4 0 -5 -8 -14 -17 -20 -16 -8 -16 -13 -5 -31 12 -20 11 -21 -9 -18 -29 4 -40
-32 -38 -127 1 -38 -4 -83 -10 -99 -8 -20 -8 -32 -1 -41 8 -9 8 -14 0 -17 -7
-2 -8 -24 -1 -73 10 -69 4 -94 -18 -81 -6 4 -11 13 -11 20 0 7 -9 21 -20 31
-30 27 -46 7 -33 -43 9 -34 7 -42 -13 -67 l-23 -29 -4 25 c-3 13 -10 48 -16
77 -6 30 -11 70 -11 90 0 34 -2 37 -31 39 -18 1 -33 4 -34 5 -7 7 -35 160 -35
187 l0 31 -47 -30 c-30 -19 -47 -38 -49 -52 -1 -13 -5 -68 -8 -123 -4 -55 -9
-116 -11 -136 -4 -33 -2 -38 20 -43 18 -5 25 -13 25 -31 0 -22 4 -25 29 -23
20 1 32 9 36 23 4 13 8 16 12 7 4 -10 8 -10 19 -1 11 9 16 6 24 -16 5 -14 10
-31 10 -36 0 -12 27 -12 35 1 3 6 15 6 29 0 13 -5 26 -7 29 -4 3 3 17 -27 32
-65 25 -63 45 -90 45 -61 0 12 57 13 62 1 2 -5 17 -6 34 -4 21 3 36 15 49 36
25 44 67 87 83 87 8 0 22 -10 33 -22 16 -20 20 -21 29 -8 9 13 12 13 23 -1 19
-24 52 -39 88 -39 26 0 30 3 21 12 -17 17 -15 38 3 38 31 0 107 44 118 67 9
20 8 27 -5 34 -13 7 -14 15 -6 43 10 32 12 33 55 29 30 -2 49 2 59 12 9 8 22
15 30 15 14 0 20 42 15 99 -3 36 -29 69 -61 76 -17 4 -30 14 -33 27 -5 16 -2
19 16 15 12 -2 29 -8 38 -11 24 -10 31 29 11 54 -12 14 -24 18 -40 14 -18 -5
-20 -9 -10 -15 10 -7 10 -11 0 -21 -10 -10 -15 -10 -22 2 -9 13 -11 13 -20 0
-13 -20 -13 -25 5 -40 13 -11 12 -16 -5 -40 -10 -15 -21 -47 -23 -72 -2 -25
-7 -50 -11 -56 -8 -13 -3 -15 37 -12 20 1 27 -3 27 -17 0 -14 -2 -15 -9 -4 -6
10 -13 11 -29 2 -38 -20 -42 -14 -42 60 0 60 -2 70 -15 65 -9 -3 -18 1 -21 9
-8 21 -37 19 -84 -5 -26 -13 -40 -27 -40 -40 0 -11 -6 -20 -14 -20 -21 0 -29
17 -18 37 6 12 5 50 -4 108 -7 50 -14 93 -14 98 0 4 -22 23 -50 43 -27 20 -50
41 -50 47 0 7 -5 19 -10 27 -9 13 -11 13 -20 0 -10 -17 -67 -21 -67 -5 0 12
28 41 37 38 3 -1 4 5 4 13 -2 12 2 12 19 -3 20 -18 20 -18 13 11 -8 31 -42 65
-66 65 -8 0 -23 -5 -32 -12z"/>
<path d="M1525 4868 c-3 -7 -4 -39 -3 -70 2 -32 1 -58 -2 -58 -11 0 -30 -67
-30 -103 0 -68 28 -40 57 56 16 55 38 87 60 87 7 0 13 7 13 16 0 8 5 12 10 9
6 -4 17 -2 24 4 16 14 79 -6 70 -21 -4 -5 3 -5 15 2 33 17 20 34 -32 42 -26 3
-74 16 -107 27 -71 25 -69 25 -75 9z"/>
<path d="M5655 4667 c-4 -9 -5 -26 -2 -37 3 -11 1 -23 -4 -26 -5 -3 -9 8 -9
25 0 42 -20 50 -21 9 -1 -18 -3 -25 -6 -15 -5 21 -33 23 -33 2 0 -8 -7 -15
-17 -15 -9 0 -14 -3 -10 -6 8 -9 -18 -34 -36 -34 -8 0 -20 -7 -27 -15 -20 -24
6 -68 36 -61 18 5 23 1 26 -16 3 -26 38 -38 38 -14 0 18 25 22 35 6 11 -17 86
-12 101 8 19 24 18 116 -1 132 -8 7 -15 23 -15 36 0 44 -20 36 -21 -8 l-1 -43
-13 45 c-9 35 -14 41 -20 27z"/>
<path d="M5331 4380 c3 -76 0 -88 -26 -116 -25 -27 -33 -54 -16 -54 5 0 11 5
13 11 5 15 63 3 82 -17 12 -12 16 -9 25 16 5 17 21 35 35 42 15 6 26 15 26 19
0 5 -21 22 -48 39 -26 18 -58 48 -70 68 l-22 37 1 -45z"/>
<path d="M5900 3923 c14 -9 29 -23 33 -30 4 -7 15 -13 23 -13 8 0 12 -4 9 -10
-3 -5 4 -10 15 -10 16 0 20 5 16 15 -8 21 78 21 118 0 15 -8 37 -15 47 -15 14
0 19 -7 18 -27 -1 -17 -3 -21 -6 -10 -5 21 -31 23 -39 3 -7 -18 -110 -19 -139
-2 -16 10 -30 9 -73 -4 -29 -9 -49 -19 -46 -23 4 -4 0 -7 -9 -7 -30 0 -18 -15
23 -28 23 -7 94 -12 170 -12 l131 0 -3 67 -3 66 -125 28 c-69 16 -138 28 -155
29 l-29 0 24 -17z"/>
<path d="M1182 2368 c-17 -17 -17 -349 0 -366 17 -17 1739 -17 1756 0 8 8 12
65 12 189 0 152 -2 178 -16 183 -9 3 -404 6 -878 6 -657 0 -865 -3 -874 -12z"/>
<path d="M4010 2361 c-6 -11 -10 -88 -10 -180 0 -132 3 -162 16 -175 14 -14
108 -16 883 -16 661 0 870 3 879 12 17 17 17 349 0 366 -9 9 -219 12 -885 12
-852 0 -873 0 -883 -19z"/>
<path d="M6852 2368 c-8 -8 -12 -63 -12 -183 0 -120 4 -175 12 -183 9 -9 218
-12 879 -12 775 0 869 2 883 16 13 13 16 44 16 183 0 116 -4 171 -12 179 -17
17 -1749 17 -1766 0z"/>
<path d="M9692 2368 c-8 -8 -12 -63 -12 -183 0 -120 4 -175 12 -183 17 -17
1739 -17 1756 0 8 8 12 65 12 189 0 152 -2 178 -16 183 -9 3 -404 6 -878 6
-657 0 -865 -3 -874 -12z"/>
<path d="M820 1564 c-12 -35 -19 -68 -15 -74 3 -5 2 -10 -4 -10 -5 0 -12 -13
-16 -30 -4 -16 -11 -30 -16 -30 -5 0 -9 -235 -9 -585 0 -322 2 -585 4 -585 2
0 48 9 103 20 119 24 143 25 143 5 0 -9 -10 -20 -22 -25 -18 -7 -19 -9 -5 -9
13 -1 17 -10 17 -36 0 -34 1 -35 41 -35 30 0 46 6 60 23 l18 22 1 -22 c0 -19
5 -23 35 -23 28 0 35 4 35 19 0 11 5 23 10 26 6 3 10 14 10 24 0 26 22 49 53
57 26 6 27 4 27 -30 0 -63 16 -39 29 44 8 44 17 80 22 80 5 0 8 -48 7 -107
l-2 -108 95 -3 c52 -1 89 1 82 6 -8 5 3 16 34 32 25 14 54 38 63 53 16 26 17
34 4 88 -8 33 -21 73 -29 89 -24 46 -19 77 14 94 16 9 32 26 36 38 9 29 6 72
-6 76 -5 2 -9 10 -9 17 0 8 -7 18 -16 23 -13 7 -12 11 6 33 20 23 20 23 8 1
-11 -19 -11 -24 2 -32 9 -6 17 -5 22 3 4 7 8 -2 8 -20 0 -18 5 -33 10 -33 6 0
10 9 10 19 0 11 3 26 6 34 3 10 -2 17 -13 20 -17 4 -17 5 0 6 12 1 17 9 16 28
0 16 3 39 7 53 6 22 5 23 -8 12 -13 -10 -20 -7 -47 20 -33 34 -41 68 -16 68
24 0 18 20 -9 30 -13 5 -27 13 -30 19 -8 12 12 54 22 47 9 -5 32 20 25 28 -4
3 -23 6 -43 6 -37 0 -37 0 -44 -50 -5 -34 -13 -54 -26 -63 -27 -16 -25 -36 5
-47 14 -5 25 -14 25 -19 0 -5 11 -22 24 -38 37 -45 39 -65 10 -96 -24 -27 -27
-27 -44 -12 -28 26 -46 8 -20 -20 18 -19 19 -26 9 -51 -6 -16 -13 -23 -16 -17
-3 9 -11 8 -29 -3 -23 -15 -39 -15 -98 3 -18 5 -19 1 -12 -78 7 -89 6 -92 -22
-35 -18 36 -20 37 -36 21 -23 -23 -46 -12 -45 22 2 49 14 78 32 75 23 -4 57
16 57 32 0 8 -11 21 -25 30 -14 9 -33 32 -42 51 -14 30 -15 38 -3 59 11 21 55
46 80 46 24 0 41 -108 21 -134 -15 -19 -21 -58 -8 -52 7 3 20 9 30 12 9 4 17
10 17 14 0 4 14 13 31 20 39 17 36 50 -6 68 -20 9 -37 29 -52 62 -25 53 -46
65 -98 56 -44 -9 -59 -29 -56 -78 2 -35 -3 -46 -30 -70 -29 -27 -57 -32 -31
-6 18 18 14 46 -8 68 -24 24 -25 27 -2 33 14 4 14 6 -5 12 -30 10 -31 40 -2
32 15 -4 19 -2 15 10 -3 8 -6 23 -6 34 0 12 -13 24 -36 34 -46 19 -54 19 -54
0 0 -32 -19 -13 -25 25 -4 22 -11 42 -16 45 -5 4 -6 -1 -3 -9 4 -10 1 -16 -9
-16 -26 0 -28 16 -4 42 18 20 21 30 15 54 -11 40 -3 60 17 44 8 -7 15 -8 15
-2 0 5 -7 15 -15 22 -16 13 -20 31 -7 29 25 -4 27 5 21 84 -8 101 -14 123 -38
130 -18 4 -23 22 -33 109 -2 12 -6 14 -12 8 -18 -18 -28 -11 -22 15 6 24 4 25
-21 20 -27 -6 -27 -6 -6 7 23 14 20 31 -7 41 -8 3 13 6 47 6 108 2 76 16 -38
17 l-109 1 -20 -63z"/>
<path d="M2933 1591 c5 -37 3 -40 -27 -52 -17 -7 -35 -19 -41 -26 -5 -6 -35
-20 -65 -30 -42 -14 -54 -22 -52 -35 2 -12 -4 -18 -17 -18 -11 0 -23 -4 -26
-10 -3 -5 0 -10 8 -10 22 0 52 -49 38 -63 -7 -7 -5 -14 6 -22 13 -10 22 -9 45
4 29 17 37 31 16 31 -17 0 -59 45 -51 54 10 9 33 7 33 -3 0 -5 15 -24 33 -42
30 -30 35 -43 46 -123 8 -62 9 -92 2 -99 -6 -6 -11 -19 -11 -29 0 -23 -33 -24
-51 -2 -9 11 -23 14 -44 11 -37 -5 -55 0 -55 18 0 7 -7 15 -15 19 -17 6 -21
-9 -4 -19 6 -5 2 -13 -11 -22 -17 -12 -21 -22 -16 -44 5 -28 -6 -40 -19 -19
-13 21 -66 10 -96 -19 -34 -34 -37 -61 -9 -79 17 -10 22 -8 42 18 41 57 89 23
83 -58 -4 -50 -5 -53 -34 -55 -15 -1 -21 -8 -21 -25 0 -20 -3 -22 -14 -13 -10
9 -16 8 -26 -3 -15 -19 -7 -32 25 -38 31 -6 57 28 34 44 -11 7 -9 8 4 4 10 -3
21 -6 23 -6 2 0 4 -7 4 -15 0 -8 5 -15 10 -15 6 0 10 -6 10 -13 0 -8 9 -22 20
-32 24 -22 25 -38 5 -55 -8 -7 -15 -16 -15 -21 0 -14 38 -11 43 4 2 6 3 4 2
-5 -2 -11 13 -29 36 -47 38 -28 42 -28 83 -16 24 7 62 23 85 34 59 31 50 12
-16 -31 -33 -23 -68 -38 -86 -38 -27 0 -29 -2 -23 -30 3 -17 16 -56 28 -87 21
-50 27 -57 64 -68 22 -6 49 -10 60 -8 21 4 156 15 192 15 18 0 22 4 16 17 -15
36 -15 61 1 94 15 33 15 37 0 67 -13 26 -15 38 -6 56 21 46 38 34 120 -85 l51
-75 0 553 0 552 -25 24 c-21 22 -33 25 -103 25 -81 0 -99 -8 -115 -52 -3 -9
-17 -24 -31 -33 -21 -14 -30 -14 -65 -4 -52 16 -54 33 -2 26 34 -4 43 -1 67
24 24 26 23 43 -1 20 -6 -5 -21 -12 -35 -16 -25 -8 -25 -8 -6 14 l19 21 -63 0
-63 0 6 -39z"/>
<path d="M3629 1617 c-39 -30 -39 -36 -39 -751 l0 -696 409 0 409 0 23 67 c27
84 87 188 131 229 18 17 62 51 98 76 81 57 145 125 166 178 9 23 22 39 28 37
6 -2 21 -21 33 -43 21 -36 23 -37 23 -13 0 14 -5 40 -11 58 -6 18 -9 35 -6 38
8 7 97 -45 97 -56 0 -5 -15 -22 -32 -38 -39 -34 -64 -83 -48 -93 7 -4 4 -14
-8 -28 -11 -12 -22 -19 -26 -15 -6 7 -35 -25 -36 -40 0 -4 11 -5 25 -1 21 5
25 3 25 -15 0 -11 -9 -26 -20 -33 -27 -17 -25 -26 7 -30 22 -2 34 -15 61 -66
34 -64 40 -113 6 -55 -23 39 -104 73 -104 44 0 -9 -14 -28 -30 -43 -27 -24
-36 -26 -88 -21 l-57 5 25 -20 24 -20 -37 -41 c-20 -23 -37 -46 -37 -51 0 -6
15 -10 34 -10 32 0 34 2 32 33 -1 28 3 32 25 35 21 3 29 -3 43 -32 l17 -36
699 0 700 0 0 338 c0 391 12 355 -121 371 -45 6 -89 16 -98 23 -45 34 -81 74
-86 97 -3 14 -26 42 -51 61 -59 45 -83 79 -86 121 -3 34 -3 34 42 37 25 1 54
6 65 11 11 5 42 13 69 17 49 9 50 10 63 59 12 45 52 282 53 313 0 18 -2387 17
-2411 -1z m1464 -261 c41 -17 63 -43 80 -92 14 -38 13 -40 -15 -65 -32 -30
-37 -59 -10 -59 13 0 14 -2 3 -9 -18 -12 3 -24 28 -16 15 5 22 -1 31 -29 9
-27 8 -51 -5 -111 -22 -110 -39 -145 -67 -145 -39 0 -146 29 -186 49 -46 23
-58 37 -67 74 -6 23 -4 27 14 27 33 0 39 31 10 49 -38 25 -69 59 -69 76 0 13
16 14 131 8 l130 -6 -6 39 c-4 21 -10 42 -14 46 -3 4 -51 9 -106 10 l-100 3 1
40 c2 48 39 84 112 108 59 20 66 20 105 3z m317 -540 c80 -9 177 -23 215 -32
74 -17 211 -68 233 -87 22 -18 41 -63 36 -84 -5 -16 -14 -20 -47 -20 -23 0
-67 -3 -97 -7 -48 -6 -68 -2 -155 30 -370 133 -372 134 -424 80 l-33 -34 49
-7 c28 -3 60 -2 76 4 16 6 42 11 58 11 30 0 129 -37 129 -48 0 -20 -38 -42
-73 -42 -22 0 -56 -5 -74 -12 -27 -10 -40 -10 -66 1 -17 7 -45 18 -62 25 -60
23 -70 32 -56 50 17 20 12 20 -28 0 -42 -21 -51 -11 -19 24 14 15 29 37 32 48
4 12 15 29 26 39 11 10 20 26 20 36 0 33 30 51 74 46 23 -3 106 -12 186 -21z
m-1 -443 c48 -40 52 -66 14 -90 -16 -9 -37 -25 -48 -35 -20 -17 -22 -16 -49
13 l-29 31 21 50 c11 27 19 55 16 63 -9 23 31 6 75 -32z"/>
<path d="M6455 1605 l-25 -24 0 -706 0 -705 1300 0 1301 0 -3 142 -3 142 -110
39 c-60 22 -122 41 -137 44 -16 3 -28 11 -28 18 0 20 -28 26 -44 10 -21 -22
-27 -18 -20 12 l7 27 -23 -22 c-13 -12 -27 -22 -32 -22 -4 0 -5 -6 -3 -12 4
-9 -5 -13 -24 -14 -17 -1 -29 2 -28 5 4 11 -13 13 -57 7 -40 -6 -51 -4 -95 21
-2 2 2 9 9 18 8 10 9 15 1 15 -6 0 -11 -4 -11 -9 0 -11 -80 -44 -88 -36 -6 6
-9 4 42 30 22 11 40 25 40 30 1 6 -20 17 -47 26 -26 8 -44 18 -41 22 4 3 -7 9
-22 12 -87 18 -107 39 -38 41 22 0 47 4 54 9 7 4 16 2 20 -5 5 -8 10 -9 14 -2
5 8 -86 48 -104 45 -3 0 -20 -3 -38 -7 -21 -3 -31 -2 -27 4 3 6 -1 10 -11 10
-25 0 0 26 34 35 l27 8 -25 7 c-14 5 -44 8 -66 9 -24 1 -47 7 -54 16 -25 30
-120 11 -120 -24 0 -11 -4 -23 -10 -26 -14 -9 -12 -45 3 -45 7 -1 5 -6 -6 -14
-18 -14 -18 -14 0 -19 11 -3 5 -5 -13 -6 -35 -1 -48 7 -35 23 4 6 18 38 30 70
12 33 29 74 38 90 9 17 19 38 23 46 14 31 123 89 170 91 25 1 50 6 57 11 8 6
16 -7 28 -42 17 -51 55 -90 103 -105 25 -7 29 -20 7 -29 -27 -10 -17 -53 18
-80 19 -15 39 -26 45 -26 6 0 16 -9 22 -20 6 -11 15 -20 21 -20 6 0 17 -7 25
-15 10 -9 25 -12 45 -8 19 3 36 0 47 -9 37 -31 68 -38 93 -20 13 9 29 23 36
32 10 13 11 12 6 -7 -9 -36 5 -27 26 17 10 22 15 40 11 40 -5 0 -10 -3 -12 -7
-7 -16 -71 -43 -101 -43 l-30 0 20 22 c36 40 37 53 4 29 l-32 -23 -6 21 c-6
25 -11 26 -35 4 -23 -21 -32 -11 -31 34 1 20 -2 31 -7 24 -4 -8 -10 7 -14 36
-14 96 -14 98 20 101 28 3 32 0 37 -27 4 -17 12 -31 19 -31 7 0 38 -20 68 -45
30 -25 63 -45 72 -45 9 0 23 -8 30 -19 7 -10 24 -21 38 -26 14 -4 48 -18 77
-31 28 -13 56 -24 61 -24 4 0 21 -13 37 -30 16 -16 32 -30 37 -30 4 0 8 47 8
105 0 89 -3 105 -17 114 -17 9 -17 10 0 16 16 7 17 33 17 347 0 355 -3 386
-45 402 -9 3 -577 6 -1261 6 l-1245 0 -24 -25z m1809 -20 c28 -26 35 -65 11
-65 -8 0 -21 14 -30 30 -9 17 -19 30 -24 30 -27 0 -58 -73 -63 -149 -2 -36 0
-44 15 -47 14 -2 17 5 17 37 0 48 16 57 68 37 31 -11 38 -20 43 -48 5 -35 -5
-69 -25 -82 -6 -4 -30 -8 -52 -8 -32 0 -45 5 -57 23 l-16 22 0 -22 c-1 -26
-19 -39 -33 -25 -10 10 -3 77 17 177 7 31 42 95 59 107 20 14 43 8 70 -17z
m-923 -623 c3 -24 10 -47 16 -50 18 -13 63 -86 63 -104 0 -23 -27 -13 -35 13
-9 27 -27 12 -23 -19 2 -15 6 -29 9 -32 3 -3 9 -19 12 -37 10 -50 -11 -49 -24
1 -6 25 -17 51 -25 57 -8 6 -14 17 -14 25 0 7 -14 29 -30 48 -17 19 -26 36
-20 38 9 3 4 34 -15 80 -7 18 13 27 55 25 22 -2 26 -8 31 -45z m164 -536 c31
-46 70 -131 79 -174 6 -27 4 -30 -25 -36 -17 -3 -44 -6 -60 -6 -16 0 -29 -4
-29 -10 0 -5 -7 -10 -15 -10 -8 0 -15 5 -15 10 0 16 -30 12 -36 -5 -4 -8 -16
-15 -28 -15 -21 1 -21 1 -1 12 11 6 32 22 47 36 18 17 34 23 48 19 12 -3 28
-3 36 0 16 6 19 33 4 33 -5 0 -10 7 -10 15 0 9 -11 20 -24 25 -13 5 -27 14
-31 19 -3 6 -16 11 -28 11 -19 0 -18 2 10 23 44 31 54 91 14 80 -10 -3 -21 -1
-25 5 -3 5 10 9 29 8 27 -1 38 -8 60 -40z"/>
<path d="M10493 1600 c-82 -38 -94 -39 -122 -11 -25 25 -66 23 -88 -6 -19 -25
-16 -35 8 -23 26 14 75 -3 90 -32 9 -17 8 -19 -9 -14 -25 8 -75 -11 -67 -25 4
-6 18 -8 30 -5 13 3 26 2 29 -3 9 -13 -17 -61 -34 -62 -10 0 -11 -2 -2 -6 6
-2 12 -12 12 -20 0 -11 -7 -14 -26 -10 -17 3 -28 0 -31 -10 -3 -8 -11 -12 -19
-9 -7 3 -15 -3 -17 -12 -3 -9 -3 15 -2 53 2 39 6 80 10 93 9 28 -5 29 -60 2
-41 -20 -315 -80 -364 -80 -20 0 -31 9 -45 34 -18 33 -19 34 -50 21 -17 -7
-35 -12 -41 -12 -5 1 -11 -11 -13 -28 -5 -39 -10 -44 -57 -49 -22 -2 -47 -6
-55 -9 -8 -3 -67 -8 -130 -12 -63 -3 -127 -9 -142 -12 l-27 -5 0 -159 c-1
-146 0 -158 17 -152 9 4 20 11 25 17 5 8 10 6 16 -3 8 -13 12 -13 26 -1 15 12
19 12 31 -5 33 -45 14 -73 -57 -81 l-59 -7 1 -126 c1 -69 4 -117 6 -106 8 32
43 48 43 20 0 -8 6 -14 13 -12 24 4 12 -28 -15 -41 -16 -7 -28 -18 -27 -25 0
-9 2 -9 6 1 7 19 23 4 23 -23 0 -15 -10 -31 -25 -41 -25 -16 -25 -16 -25 -180
l0 -164 23 8 c34 13 120 9 124 -5 2 -6 -4 -12 -14 -12 -10 0 -44 -5 -75 -12
-55 -10 -58 -13 -58 -40 l0 -29 296 0 c259 0 295 2 284 15 -14 17 -8 98 13
170 21 70 37 142 37 165 0 26 58 89 114 125 37 23 44 33 40 51 -3 12 -1 47 6
78 16 76 51 107 123 105 29 -1 40 -4 25 -6 -28 -4 -105 -69 -94 -80 3 -3 -6
-19 -20 -36 -16 -19 -23 -36 -18 -46 4 -9 9 -26 11 -38 3 -13 9 -23 14 -23 5
0 9 -5 9 -11 0 -7 -11 -9 -30 -5 -22 4 -30 2 -30 -9 0 -7 5 -17 10 -20 6 -4
20 -25 31 -47 18 -35 24 -40 48 -35 24 5 30 0 58 -46 l32 -52 -6 59 c-5 46 -3
61 9 70 8 6 19 19 24 28 9 16 11 16 40 -1 17 -10 52 -47 78 -82 26 -35 61 -74
77 -87 22 -18 29 -32 29 -58 0 -19 5 -42 11 -52 7 -12 7 -25 0 -44 -8 -22 -17
-28 -41 -28 -16 0 -30 -5 -30 -12 0 -6 -7 -20 -17 -30 -16 -17 -10 -18 155
-18 108 0 172 4 172 10 0 6 19 10 43 10 31 0 38 -3 27 -10 -11 -7 -7 -10 18
-10 36 0 39 5 16 40 -9 15 -4 12 13 -8 27 -31 62 -46 47 -19 -6 9 -4 9 7 -1
17 -16 32 -16 23 1 -6 9 -4 9 7 -1 16 -14 115 -16 124 -2 3 6 -1 10 -11 10
-13 0 -14 3 -5 14 9 11 6 12 -16 8 -28 -5 -28 -5 -9 17 l19 21 -34 -6 c-33 -7
-34 -7 -16 13 24 27 22 30 -15 26 -27 -3 -30 -2 -15 7 31 20 20 36 -20 32
l-38 -4 21 23 c38 43 37 48 -4 38 -20 -5 -55 -9 -77 -9 l-40 0 30 18 c40 25
62 66 46 85 -16 20 -6 39 31 60 49 28 27 30 -53 3 -41 -14 -103 -27 -139 -31
-64 -6 -65 -6 -32 9 19 9 36 24 39 34 2 10 14 22 25 27 32 15 33 33 4 46 -50
23 -24 109 32 109 12 0 22 5 22 10 0 6 -5 10 -11 10 -5 0 -7 5 -4 11 4 5 12 8
18 6 7 -3 31 14 54 36 l42 40 41 -18 c60 -27 90 -67 90 -119 0 -23 -7 -51 -15
-62 -18 -23 -19 -40 -2 -27 6 5 18 8 25 7 6 -1 19 -2 28 -3 8 0 12 -6 8 -12
-3 -6 -17 -9 -30 -6 l-24 4 25 -33 c14 -18 25 -42 25 -53 0 -12 7 -21 15 -21
13 0 21 -32 16 -63 -1 -4 7 -2 18 5 11 7 17 18 13 27 -4 12 -7 11 -13 -5 -6
-16 -8 -15 -8 9 -1 21 4 27 20 27 24 0 54 -27 54 -49 0 -9 10 -17 25 -19 14
-2 29 -8 34 -13 6 -5 17 -9 25 -9 14 0 14 1 1 10 -11 7 -5 8 18 4 26 -5 40 -2
64 16 31 23 35 23 202 16 94 -3 174 -10 179 -15 11 -11 -7 -50 -42 -91 -17
-19 -31 -38 -31 -42 0 -14 -65 -35 -165 -53 -55 -10 -115 -20 -133 -24 -18 -3
-31 -10 -30 -16 4 -12 40 -13 117 -3 61 8 121 -7 121 -29 0 -10 33 -13 145
-13 l145 0 0 709 0 710 -26 20 c-26 21 -34 21 -653 20 l-626 0 -62 -29z m316
-455 c102 -32 171 -91 171 -144 0 -47 -27 -98 -68 -129 -20 -15 -49 -40 -65
-57 -18 -18 -38 -29 -51 -27 -11 1 -52 -9 -91 -22 -38 -13 -74 -21 -78 -17 -4
4 -15 61 -23 127 -9 65 -20 127 -25 136 -20 38 -6 30 86 -46 19 -15 35 -26 35
-22 0 8 -104 106 -112 106 -9 0 -33 56 -43 100 l-7 33 94 -6 c58 -4 126 -16
177 -32z m-531 -343 c2 -13 1 -30 -2 -39 -6 -14 -8 -14 -25 1 -16 15 -23 16
-42 5 l-23 -12 22 -15 c12 -8 22 -24 21 -36 0 -11 -3 -15 -6 -8 -2 6 -11 12
-20 12 -14 0 -13 -11 4 -57 3 -7 -2 -13 -11 -13 -10 0 -16 -8 -16 -21 0 -19
-1 -19 -16 -5 -8 9 -20 16 -26 16 -5 0 -8 6 -6 12 3 7 -1 24 -8 37 -8 14 -10
28 -5 31 5 3 23 28 40 55 21 34 40 52 59 56 42 10 57 6 60 -19z m-758 -223 c0
-5 8 -5 17 -2 13 5 15 2 10 -12 -4 -9 -3 -23 3 -30 14 -17 3 -43 -22 -51 -11
-3 -44 -7 -73 -9 -29 -1 -58 -6 -64 -9 -18 -11 -54 4 -42 17 5 7 11 22 13 35
1 13 16 31 33 40 17 9 31 19 33 22 4 9 92 8 92 -1z"/>
<path d="M1556 1202 c16 -24 15 -26 -1 -38 -10 -7 -22 -15 -26 -16 -5 -2 -1
-27 7 -55 l15 -53 28 15 c16 8 41 13 57 12 l29 -2 0 65 0 66 41 -1 c22 -1 46
-5 52 -9 7 -4 12 -2 12 3 0 6 -9 11 -19 11 -11 0 -21 5 -23 12 -3 8 -35 12
-96 13 l-92 2 16 -25z"/>
<path d="M2158 1112 c-9 -2 -20 -16 -23 -33 -9 -41 -94 -152 -111 -145 -9 4
-14 -2 -14 -17 0 -23 -20 -62 -20 -40 0 7 -7 10 -15 7 -8 -4 -15 -12 -15 -20
0 -9 -12 -14 -36 -14 -45 0 -74 15 -74 40 0 27 -8 25 -42 -10 -30 -31 -37 -71
-24 -135 4 -22 4 -24 -2 -6 -18 58 -50 18 -47 -60 1 -28 -2 -46 -9 -46 -40 1
-42 -2 -42 -62 1 -33 -2 -57 -6 -54 -5 2 -8 -5 -8 -16 0 -33 15 -25 29 16 12
31 15 34 23 19 6 -10 7 -31 4 -47 -3 -19 -2 -28 4 -24 6 3 10 14 11 23 0 14 2
13 8 -3 5 -11 4 -33 -1 -50 -5 -16 -11 -37 -12 -45 -1 -8 -8 -28 -14 -43 -16
-38 -15 -54 4 -61 8 -3 12 -2 9 4 -9 14 19 12 33 -2 7 -7 12 -22 12 -35 0 -13
5 -23 11 -23 6 0 3 -7 -5 -16 -17 -17 -22 -44 -7 -44 16 0 28 24 27 52 -1 21
5 30 32 42 26 13 32 21 27 36 -9 28 13 25 24 -3 5 -13 24 -28 47 -36 51 -18
74 -39 74 -67 0 -21 4 -22 61 -23 44 0 59 3 56 12 -3 7 1 21 8 30 10 13 18 15
36 8 24 -10 24 -10 -4 -10 -16 -1 -26 -5 -22 -11 9 -15 48 -12 72 5 28 20 56
76 44 88 -5 5 -7 16 -4 23 3 8 0 14 -5 14 -6 0 -13 -12 -15 -27 l-4 -28 -2 26
c0 15 5 39 13 53 l14 27 12 -50 c6 -27 19 -56 28 -63 13 -12 14 -10 8 17 -4
16 -12 32 -16 35 -5 3 -6 19 -1 35 l8 30 8 -25 c5 -14 9 -34 10 -44 1 -11 8
-22 15 -24 9 -3 11 1 7 11 -3 9 -2 19 3 22 10 6 2 56 -10 65 -4 3 -11 16 -15
29 -5 18 -9 20 -16 10 -4 -7 -11 -11 -14 -7 -8 7 10 44 19 41 18 -8 26 1 25
30 l-1 32 -14 -30 c-15 -30 -15 -30 -9 -3 4 21 2 26 -9 22 -9 -3 -12 -12 -9
-21 4 -11 2 -14 -5 -9 -18 11 -15 46 4 46 12 0 15 7 12 25 -3 13 -2 22 2 20 4
-2 13 8 21 22 11 21 11 27 2 30 -7 3 -13 11 -13 19 0 9 -4 12 -10 9 -6 -4 -7
1 -3 11 6 15 8 15 24 -4 23 -29 26 -28 21 8 -5 38 -30 52 -70 41 -23 -7 -32
-6 -36 5 -5 13 -9 12 -24 -3 -28 -26 -34 -61 -14 -82 21 -22 31 -53 11 -33 -7
6 -23 12 -36 12 -12 0 -27 8 -32 18 -16 27 -13 8 4 -24 8 -16 11 -32 7 -36 -4
-3 -34 -9 -66 -13 -33 -3 -64 -8 -68 -11 -5 -3 -20 -3 -33 0 -20 5 -23 11 -19
48 2 24 1 36 -2 28 -3 -11 -17 -14 -55 -11 -56 3 -65 14 -48 57 l11 29 14 -32
c8 -18 18 -33 23 -33 11 0 9 39 -2 57 -4 6 -10 32 -13 56 -6 45 -6 45 35 66
22 12 41 19 41 15 0 -4 6 -1 14 5 10 8 16 9 21 1 14 -23 31 -6 49 51 10 33 27
66 37 72 11 7 19 17 19 22 0 6 7 20 16 31 10 12 14 14 11 4 -2 -8 -8 -26 -12
-40 l-7 -25 21 24 c12 14 24 36 28 49 4 16 8 20 13 12 11 -17 30 -3 30 22 0
28 -31 64 -52 60z"/>
<path d="M2180 916 c0 -13 7 -26 15 -30 19 -7 20 -46 1 -46 -7 0 -19 7 -26 15
-7 8 -17 15 -22 15 -14 0 -70 -41 -64 -47 3 -3 17 5 33 17 26 20 28 21 41 3 7
-10 11 -26 9 -35 -3 -10 0 -15 8 -12 7 3 20 -2 29 -11 15 -15 16 -15 16 0 0
10 5 15 14 12 19 -7 47 29 39 50 -7 17 -6 17 11 0 14 -13 15 -21 7 -31 -12
-15 -5 -46 11 -46 5 0 12 9 15 20 6 21 18 26 28 10 3 -5 12 -7 19 -4 9 3 18
-5 24 -23 10 -28 10 -28 12 -3 l1 25 10 -23 c6 -17 5 -30 -6 -45 -9 -13 -15
-16 -15 -8 0 8 -3 12 -6 8 -3 -3 1 -16 10 -29 l16 -22 0 26 c0 15 5 30 10 33
6 3 10 2 10 -2 0 -13 60 -46 68 -38 4 4 -10 22 -30 41 -36 32 -68 90 -68 121
0 8 5 11 11 7 23 -14 3 39 -21 55 -23 15 -24 15 -16 -4 18 -45 20 -58 5 -49
-13 8 -18 10 -38 13 -5 0 -11 10 -14 21 -3 11 -10 20 -16 20 -7 0 -9 -10 -5
-25 3 -14 2 -25 -4 -25 -12 0 -24 28 -17 40 3 4 -2 13 -10 20 -12 10 -15 9
-15 -4 0 -18 -15 -21 -25 -5 -4 6 -13 8 -21 5 -8 -3 -14 -1 -14 4 0 6 -4 10
-10 10 -5 0 -10 -11 -10 -24z"/>
<path d="M2500 834 c0 -6 11 -38 25 -72 27 -67 29 -76 16 -68 -12 8 -19 -24
-10 -54 4 -14 7 -38 8 -55 1 -24 -1 -27 -10 -15 -9 12 -10 12 -5 -3 3 -10 6
-24 6 -30 0 -7 4 -6 10 3 5 8 10 10 10 4 0 -18 -26 -35 -43 -28 -9 3 -19 14
-22 25 -4 10 -11 19 -16 19 -6 0 -2 -15 7 -32 34 -67 36 -70 25 -63 -6 3 -20
23 -31 43 -15 26 -19 30 -14 12 11 -44 34 -72 55 -67 21 6 24 -5 9 -33 -7 -13
-7 -21 0 -25 5 -3 10 -15 10 -27 0 -17 -2 -18 -15 -8 -14 12 -15 9 -10 -21 7
-37 23 -61 36 -53 5 3 6 -2 2 -11 -3 -9 -9 -13 -12 -8 -12 16 -51 34 -51 22 0
-5 -4 -8 -9 -5 -5 3 -14 -1 -20 -8 -17 -21 -71 -39 -65 -22 3 7 -3 19 -12 27
-15 13 -16 12 -9 -11 9 -27 45 -80 55 -80 19 0 90 42 85 50 -4 6 3 10 13 10
11 0 20 -6 19 -12 -2 -68 -2 -68 73 -68 63 0 70 2 70 19 0 11 4 22 9 26 10 6
41 -21 41 -36 0 -5 126 -9 310 -9 332 0 353 4 268 45 -34 17 -43 28 -55 65
-15 50 -35 81 -55 84 -7 1 -18 5 -25 9 -6 4 -14 3 -17 -1 -3 -5 -65 -9 -138
-8 -118 1 -135 -1 -152 -18 -19 -19 -20 -19 -42 9 -12 15 -24 38 -27 49 -3 12
-23 61 -45 110 -28 66 -45 92 -63 98 -13 5 -34 19 -46 30 -18 16 -25 18 -36 9
-18 -14 -27 -3 -52 64 -25 69 -55 132 -55 119z"/>
</g>
</svg>
